<svg width="30" height="30" viewBox="0 0 30 30" fill="none" xmlns="http://www.w3.org/2000/svg">
<g clip-path="url(#clip0_3_231)">
<g clip-path="url(#clip1_3_231)">
<mask id="mask0_3_231" style="mask-type:luminance" maskUnits="userSpaceOnUse" x="0" y="0" width="31" height="30">
<path d="M30.0002 0H0.000244141V30H30.0002V0Z" fill="white"/>
</mask>
<g mask="url(#mask0_3_231)">
<path d="M6.56274 16.875H10.3127M6.56274 19.6875H14.0627M6.56274 14.0625H17.8127M21.094 11.25C20.8352 11.25 20.6252 11.0401 20.6252 10.7812C20.6252 10.5224 20.8352 10.3125 21.094 10.3125M21.094 11.25C21.3528 11.25 21.5627 11.0401 21.5627 10.7812C21.5627 10.5224 21.3528 10.3125 21.094 10.3125M21.094 11.25V10.3125M22.969 11.25C22.7102 11.25 22.5002 11.0401 22.5002 10.7812C22.5002 10.5224 22.7102 10.3125 22.969 10.3125M22.969 11.25C23.2278 11.25 23.4377 11.0401 23.4377 10.7812C23.4377 10.5224 23.2278 10.3125 22.969 10.3125M22.969 11.25V10.3125M4.68774 6.5625H25.3127C26.3483 6.5625 27.1877 7.40197 27.1877 8.4375V21.5625C27.1877 22.5981 26.3483 23.4375 25.3127 23.4375H4.68774C3.65221 23.4375 2.81274 22.5981 2.81274 21.5625V8.4375C2.81274 7.40197 3.65221 6.5625 4.68774 6.5625Z" stroke="white" stroke-width="1.875" stroke-linecap="round" stroke-linejoin="round"/>
</g>
</g>
</g>
<defs>
<clipPath id="clip0_3_231">
<rect width="30" height="30" fill="white" transform="translate(0.000244141)"/>
</clipPath>
<clipPath id="clip1_3_231">
<rect width="30" height="30" fill="white" transform="translate(0.000244141)"/>
</clipPath>
</defs>
</svg>
