<svg width="31" height="30" viewBox="0 0 31 30" fill="none" xmlns="http://www.w3.org/2000/svg">
<g clip-path="url(#clip0_3_199)">
<g clip-path="url(#clip1_3_199)">
<g clip-path="url(#clip2_3_199)">
<mask id="mask0_3_199" style="mask-type:luminance" maskUnits="userSpaceOnUse" x="0" y="0" width="31" height="30">
<path d="M30.7656 0H0.765625V30H30.7656V0Z" fill="white"/>
</mask>
<g mask="url(#mask0_3_199)">
<path fill-rule="evenodd" clip-rule="evenodd" d="M5.45312 7.5C4.93536 7.5 4.51562 7.91973 4.51562 8.4375V20.625C4.51562 21.1428 4.93535 21.5625 5.45312 21.5625H5.57126C5.98755 19.9451 7.45578 18.75 9.20312 18.75C10.9505 18.75 12.4187 19.9451 12.835 21.5625H18.6963C18.9498 20.5773 19.5936 19.7488 20.4531 19.2517V8.4375C20.4531 7.91972 20.0334 7.5 19.5156 7.5H5.45312ZM22.3281 8.59753V8.4375C22.3281 6.88421 21.069 5.625 19.5156 5.625H5.45312C3.89982 5.625 2.64062 6.8842 2.64062 8.4375V20.625C2.64062 22.1783 3.89983 23.4375 5.45312 23.4375H5.57126C5.98755 25.0549 7.45578 26.25 9.20312 26.25C10.9505 26.25 12.4187 25.0549 12.835 23.4375H18.6963C19.1125 25.0549 20.5807 26.25 22.3281 26.25C24.0755 26.25 25.5437 25.0549 25.96 23.4375H26.0781C27.6315 23.4375 28.8906 22.1783 28.8906 20.625V16.3223C28.8906 16.2409 28.8871 16.1596 28.8801 16.0787C28.887 16.0327 28.8906 15.9855 28.8906 15.9375C28.8906 15.7558 28.8389 15.5862 28.7495 15.4426C28.7241 15.3654 28.6953 15.2893 28.6632 15.2144L26.4894 10.1421C26.0461 9.10807 25.0294 8.4375 23.9042 8.4375H23.2656C22.9369 8.4375 22.6214 8.49389 22.3281 8.59753ZM22.3281 11.25V14.0625C22.3281 14.5803 22.7478 15 23.2656 15H26.5314L24.766 10.8808C24.766 10.8808 24.766 10.8808 24.766 10.8808C24.6182 10.536 24.2793 10.3125 23.9042 10.3125H23.2656C22.7478 10.3125 22.3281 10.7322 22.3281 11.25ZM27.0156 16.875H23.2656C22.7478 16.875 22.3281 17.2947 22.3281 17.8125V18.75C24.0755 18.75 25.5437 19.9451 25.96 21.5625H26.0781C26.5959 21.5625 27.0156 21.1428 27.0156 20.625V16.875ZM9.20312 20.625C8.16758 20.625 7.32812 21.4644 7.32812 22.5C7.32812 23.5356 8.16758 24.375 9.20312 24.375C10.2387 24.375 11.0781 23.5356 11.0781 22.5C11.0781 21.4644 10.2387 20.625 9.20312 20.625ZM22.3281 20.625C21.2925 20.625 20.4531 21.4644 20.4531 22.5C20.4531 23.5356 21.2925 24.375 22.3281 24.375C23.3637 24.375 24.2031 23.5356 24.2031 22.5C24.2031 21.4644 23.3637 20.625 22.3281 20.625Z" fill="white"/>
</g>
</g>
</g>
</g>
<defs>
<clipPath id="clip0_3_199">
<rect width="30" height="30" fill="white" transform="translate(0.765625)"/>
</clipPath>
<clipPath id="clip1_3_199">
<rect width="30" height="30" fill="white" transform="translate(0.765625)"/>
</clipPath>
<clipPath id="clip2_3_199">
<rect width="30" height="30" fill="white" transform="translate(0.765625)"/>
</clipPath>
</defs>
</svg>
