<svg width="24" height="24" viewBox="0 0 24 24" fill="none" xmlns="http://www.w3.org/2000/svg">
<g clip-path="url(#clip0_10_45)">
<path d="M7.07197 11.9998C8.84701 11.9998 10.286 10.5608 10.286 8.78578C10.286 7.01073 8.84701 5.57178 7.07197 5.57178C5.29693 5.57178 3.85797 7.01073 3.85797 8.78578C3.85797 10.5608 5.29693 11.9998 7.07197 11.9998Z" fill="#4D4EC9"/>
<path d="M7.5 12C9.77817 12 11.625 10.1532 11.625 7.875C11.625 5.59683 9.77817 3.75 7.5 3.75C5.22183 3.75 3.375 5.59683 3.375 7.875C3.375 10.1532 5.22183 12 7.5 12Z" stroke="#484848" stroke-width="1.2" stroke-linecap="round" stroke-linejoin="round"/>
<path d="M0.75 20.2501C0.75 16.5231 3.773 13.5001 7.5 13.5001C11.228 13.5001 14.25 16.5231 14.25 20.2501M14.251 4.41612C15.977 3.29612 18.264 3.61712 19.613 5.17112C20.963 6.72412 20.961 9.03412 19.609 10.5851C18.257 12.1371 15.969 12.4551 14.245 11.3301M15 13.6671C17.003 13.2141 19.103 13.6951 20.708 14.9761C22.313 16.2561 23.248 18.1971 23.25 20.2501" stroke="#484848" stroke-width="1.2" stroke-linecap="round" stroke-linejoin="round"/>
</g>
<defs>
<clipPath id="clip0_10_45">
<rect width="24" height="24" fill="white"/>
</clipPath>
</defs>
</svg>
