<?xml version="1.0" encoding="UTF-8" standalone="no"?><svg xmlns="http://www.w3.org/2000/svg" xmlns:xlink="http://www.w3.org/1999/xlink" fill="#000000" height="30" id="Layer_1" preserveAspectRatio="xMidYMid meet" version="1.1" viewBox="4.0 18.0 56.1 30.0" width="56.1" x="0" xml:space="preserve" y="0" zoomAndPan="magnify"><g><g><g id="change1_2"><path d="M50,34c-3.9,0-7-3.1-7-7s3.1-7,7-7s7,3.1,7,7S53.9,34,50,34z M50,22c-2.8,0-5,2.2-5,5s2.2,5,5,5s5-2.2,5-5 S52.8,22,50,22z" fill="#4d4ec9"/></g><g id="change1_6"><path d="M60,46H48.1c-0.6,0-1-0.4-1-1s0.4-1,1-1h9.9c-0.5-3.9-3.9-7-7.9-7c-1.3,0-2.5,0.3-3.6,0.9 c-0.5,0.2-1.1,0.1-1.3-0.4c-0.2-0.5-0.1-1.1,0.4-1.3c1.4-0.7,2.9-1.1,4.5-1.1c5.5,0,10,4.5,10,10V46z" fill="#4d4ec9"/></g></g><g><g id="change1_4"><path d="M14,34c-3.9,0-7-3.1-7-7s3.1-7,7-7s7,3.1,7,7S17.9,34,14,34z M14,22c-2.8,0-5,2.2-5,5s2.2,5,5,5s5-2.2,5-5 S16.8,22,14,22z" fill="#4d4ec9"/></g><g id="change1_3"><path d="M15.9,46H4v-1c0-5.5,4.5-10,10-10c1.6,0,3.1,0.3,4.4,1c0.5,0.2,0.7,0.8,0.5,1.3c-0.2,0.5-0.8,0.7-1.3,0.5 C16.4,37.3,15.2,37,14,37c-4.1,0-7.4,3.1-7.9,7h9.9c0.6,0,1,0.4,1,1S16.5,46,15.9,46z" fill="#4d4ec9"/></g></g><g><g id="change1_5"><path d="M32,34c-4.4,0-8-3.6-8-8s3.6-8,8-8s8,3.6,8,8S36.4,34,32,34z M32,20c-3.3,0-6,2.7-6,6s2.7,6,6,6s6-2.7,6-6 S35.3,20,32,20z" fill="#4d4ec9"/></g><g id="change1_1"><path d="M44,48H26c-0.6,0-1-0.4-1-1s0.4-1,1-1h16c-0.5-5-4.8-9-10-9c-5.5,0-10,4.5-10,10c0,0.6-0.4,1-1,1s-1-0.4-1-1 c0-6.6,5.4-12,12-12s12,5.4,12,12V48z" fill="#4d4ec9"/></g></g></g></svg>